<svg id="Layer_1" data-name="Layer 1" xmlns="http://www.w3.org/2000/svg" viewBox="0 0 114.833 169.5933">
  <path d="M254.7627,211.8418a8.3533,8.3533,0,0,1-1.8,5.3,11.2405,11.2405,0,0,1-4.8,3.5,11.7479,11.7479,0,0,0-2.8008-5.5,26.4911,26.4911,0,0,0-5.1992-4.5,44.8579,44.8579,0,0,0-6.3008-3.5q-3.2988-1.5-5.8994-2.5-6.8013-2.7978-13.5-6.3a60.7043,60.7043,0,0,1-12.5-8.7q-12.2022-11.3994-12.2-26a34.9742,34.9742,0,0,1,2.2-12.7,34.0592,34.0592,0,0,1,6-10.1,32.614,32.614,0,0,0-1.5,6,42.516,42.516,0,0,0-.5,6.6,36.2334,36.2334,0,0,0,3.5,15.5,41.18,41.18,0,0,0,10.3,13.4995q10.5981,9.2022,27,15.4,1.9966.8013,5.1,2.1a38.5506,38.5506,0,0,1,5.9,3.1006,26.7734,26.7734,0,0,1,4.9,4A6.8416,6.8416,0,0,1,254.7627,211.8418Zm-37.2,36.8a56.0585,56.0585,0,0,0,27.4,6.8,73.4931,73.4931,0,0,0,9.7-.6,35.49,35.49,0,0,0,8.5-2.2q-10.4019,9.1977-28.4,9.2a56.3317,56.3317,0,0,1-13.1-1.6,49.027,49.027,0,0,1-12.6006-4.9,42.1375,42.1375,0,0,1-10.5-8.3,33.4763,33.4763,0,0,1-7-12c-.3994-.5313-.2-1.2.6006-2l6.6-5.4Q203.9614,240.8413,217.5625,248.6416Zm42-90a10.069,10.069,0,0,0,1.7,1.7,3.62,3.62,0,0,0,2.3.7l-7.6,5.4-5.4-2.6-.6-.8a28.8094,28.8094,0,0,0-7.7-7.6,18.1418,18.1418,0,0,0-10.3-3,4.3853,4.3853,0,0,1-.2-1.4,3.135,3.135,0,0,1,1.1-2.4,8.2676,8.2676,0,0,1,2.7-1.6,18.1247,18.1247,0,0,1,3.4-.9,18.8929,18.8929,0,0,1,3-.3,13.65,13.65,0,0,1,8.5,3A54.0972,54.0972,0,0,1,259.5625,158.6416Z" transform="translate(-148.7295 -92.2485)"/>
  <path d="M210.73,217.8486a52.994,52.994,0,0,0,17.6-2.8q-10.2,9.1971-27.8,9.2h-50a1.5911,1.5911,0,0,1-1.8-1.8v-128.4a1.5911,1.5911,0,0,1,1.8-1.8h4.8v120.2a5.3669,5.3669,0,0,0,1.5,3.8,4.8721,4.8721,0,0,0,3.7,1.6Zm2.8-35.4a9.4544,9.4544,0,0,0,.2-1.8v-42.8q0-9.6-4.9-15.1-4.9029-5.4983-15.5-5.5h-4v-6.4h14.2q8.5964,0,12.8,4.4a17.865,17.865,0,0,1,2.9,5.2,20.3527,20.3527,0,0,1,1.1,7v41q0,7.8-4.8,12.6Z" transform="translate(-148.7295 -92.2485)"/>
</svg>
