<svg xmlns="http://www.w3.org/2000/svg" viewBox="0 0 139.1437 120.627">
  <g id="Layer_1" data-name="Layer 1">
    <path d="M311.2231,253.5542a37.6265,37.6265,0,0,0,12.4961-1.9883q-7.2422,6.53-19.7378,6.5322h-35.5a1.13,1.13,0,0,1-1.2783-1.2783V165.6562a1.13,1.13,0,0,1,1.2783-1.2783h3.4078V249.72a3.8108,3.8108,0,0,0,1.0649,2.6978,3.4585,3.4585,0,0,0,2.627,1.1362Zm1.9883-25.1343a6.6722,6.6722,0,0,0,.1416-1.2778V196.7539q0-6.8158-3.479-10.7207-3.4812-3.9037-11.0049-3.9053h-2.84V177.584h10.082q6.1041,0,9.0879,3.124a12.6891,12.6891,0,0,1,2.0591,3.6919,14.46,14.46,0,0,1,.7808,4.97v29.11a12.0981,12.0981,0,0,1-3.4078,8.9463Z" transform="translate(-267.2031 -164.3779)"/>
    <path d="M342.2563,250.0049a5.85,5.85,0,0,1-1.26,3.71,7.8662,7.8662,0,0,1-3.36,2.45,8.2236,8.2236,0,0,0-1.96-3.85,18.53,18.53,0,0,0-3.64-3.15,31.3858,31.3858,0,0,0-4.41-2.45q-2.31-1.05-4.13-1.75-4.7607-1.9584-9.45-4.41a42.4864,42.4864,0,0,1-8.75-6.09q-8.5414-7.98-8.54-18.2a24.481,24.481,0,0,1,1.54-8.89,23.83,23.83,0,0,1,4.2-7.07,22.85,22.85,0,0,0-1.05,4.2,29.7749,29.7749,0,0,0-.35,4.62,25.3678,25.3678,0,0,0,2.45,10.85,28.8168,28.8168,0,0,0,7.21,9.45,61.9256,61.9256,0,0,0,18.9,10.78q1.3975.561,3.57,1.47a26.989,26.989,0,0,1,4.13,2.17,18.7076,18.7076,0,0,1,3.43,2.8A4.7886,4.7886,0,0,1,342.2563,250.0049Zm-26.04,25.76a39.2382,39.2382,0,0,0,19.18,4.76,51.5224,51.5224,0,0,0,6.79-.42,24.8035,24.8035,0,0,0,5.95-1.54q-7.281,6.438-19.88,6.44a39.4245,39.4245,0,0,1-9.17-1.12,34.3055,34.3055,0,0,1-8.82-3.43,29.4974,29.4974,0,0,1-7.35-5.81,23.4309,23.4309,0,0,1-4.9-8.4c-.28-.3721-.14-.84.42-1.4l4.62-3.78A29.0309,29.0309,0,0,0,316.2163,275.7651Zm29.4-63a7.0461,7.0461,0,0,0,1.19,1.19,2.5348,2.5348,0,0,0,1.61.49l-5.32,3.78-3.78-1.82-.42-.56a20.1669,20.1669,0,0,0-5.39-5.32,12.7005,12.7005,0,0,0-7.21-2.1,3.0709,3.0709,0,0,1-.14-.98,2.1931,2.1931,0,0,1,.77-1.68,5.77,5.77,0,0,1,1.89-1.12,12.6563,12.6563,0,0,1,2.38-.63,13.1841,13.1841,0,0,1,2.1-.21,9.5536,9.5536,0,0,1,5.95,2.1A37.8892,37.8892,0,0,1,345.6162,212.7651Z" transform="translate(-267.2031 -164.3779)"/>
    <path d="M354.9834,251.0366a4.0045,4.0045,0,0,0,1.05,2.73,3.3211,3.3211,0,0,0,2.59,1.19h10.22v3.22a1.1135,1.1135,0,0,1-1.26,1.26h-15.96a1.1134,1.1134,0,0,1-1.26-1.26v-89.88a1.1135,1.1135,0,0,1,1.26-1.26h3.36Zm32.2-54.6a15.2129,15.2129,0,0,0-1.75-7.49q-1.7535-3.1494-6.79-3.29v-4.62h5.7392q4.0592,0,5.67,1.75,1.6085,1.752,1.61,6.51v9.1a18.7914,18.7914,0,0,1-.7,5.04,4.5631,4.5631,0,0,1-3.7793,3.22Zm4.06,55.44a7.43,7.43,0,0,0,1.61,2.1,3.1778,3.1778,0,0,0,2.17.98h9.8l1.4,2.8a1.19,1.19,0,0,1-.07,1.19,1.0762,1.0762,0,0,1-.91.49h-17.36a1.2658,1.2658,0,0,1-1.12-.7l-8.1191-18.2v-10.08h2.8Z" transform="translate(-267.2031 -164.3779)"/>
  </g>
</svg>
